<svg xmlns="http://www.w3.org/2000/svg" viewBox="0 0 854 176" preserveAspectRatio="xMidYMid meet">
  <g transform="translate(0.000000,176.000000) scale(0.100000,-0.100000)" fill="#000000" stroke="none">
    <path d="M550 1519 c-62 -6 -51 -8 110 -15 52 -2 167 -9 255 -15 88 -6 187
-12 220 -14 33 -2 89 -6 125 -9 36 -3 115 -8 175 -11 61 -4 287 -17 503 -31
216 -13 407 -24 426 -24 32 0 33 1 43 58 8 42 8 59 -1 64 -13 9 -1774 6 -1856
-3z"/>
    <path d="M2570 1478 c-6 -29 -18 -83 -26 -120 -8 -38 -21 -98 -29 -135 -20
-94 -115 -544 -170 -808 -25 -121 -48 -228 -51 -237 -5 -17 10 -18 225 -18
l231 0 6 28 c3 15 8 34 11 42 3 8 7 26 8 40 10 72 70 367 78 378 11 15 382 18
392 3 3 -5 -4 -51 -15 -103 -10 -51 -31 -149 -45 -218 -14 -69 -28 -135 -31
-147 l-4 -23 174 0 c190 0 183 -2 205 65 7 22 16 49 21 60 17 39 122 320 125
338 2 9 20 88 40 175 109 477 162 723 155 727 -10 6 -438 1 -444 -6 -4 -3 -26
-102 -51 -220 -24 -118 -47 -222 -50 -232 -6 -15 -25 -17 -196 -17 l-189 0 0
33 c0 17 12 84 26 147 14 63 27 131 30 150 3 19 9 51 14 70 6 19 10 45 10 57
0 22 0 22 -219 23 l-219 0 -12 -52z"/>
    <path d="M4187 1518 c-17 -13 -35 -54 -207 -448 -56 -129 -167 -382 -246 -563
-79 -180 -144 -332 -144 -337 0 -8 450 -16 450 -7 0 1 20 52 44 112 l44 110
218 0 219 0 12 -75 c7 -41 13 -92 14 -112 l2 -38 203 0 203 0 10 52 c29 147
33 181 28 211 -3 17 -22 111 -42 207 -20 96 -38 189 -40 205 -2 17 -7 39 -9
50 -14 53 -25 103 -29 130 -3 17 -28 136 -56 265 -28 129 -51 238 -51 242 0 5
-136 8 -303 8 -227 0 -307 -3 -320 -12z m295 -549 c15 -101 27 -196 28 -211
l0 -28 -118 0 c-65 0 -121 3 -124 6 -3 3 14 53 39 112 24 59 63 153 85 210 23
56 46 101 52 99 6 -2 23 -86 38 -188z"/>
    <path d="M4927 1522 c-24 -3 -28 -7 -23 -25 23 -81 77 -292 156 -606 l91 -363
-31 -167 c-17 -91 -33 -174 -36 -183 -5 -17 10 -18 213 -18 l219 0 38 197 37
198 184 370 c164 331 249 516 270 583 l6 22 -163 0 c-117 0 -169 -4 -180 -12
-8 -7 -68 -114 -133 -238 -65 -124 -123 -233 -130 -243 -18 -26 -16 -33 -123
420 l-17 72 -175 -1 c-96 -1 -188 -4 -203 -6z"/>
    <path d="M6097 1464 c-9 -38 -32 -148 -52 -244 -20 -96 -47 -227 -60 -290 -14
-63 -27 -130 -30 -149 -3 -18 -24 -122 -46 -230 -22 -108 -47 -229 -54 -269
-8 -40 -18 -84 -21 -97 l-6 -25 234 0 235 0 38 195 37 196 66 -3 65 -3 81
-190 81 -190 134 0 134 0 57 129 57 129 -37 76 c-58 119 -58 113 5 144 146 71
231 217 255 435 25 233 -58 369 -262 429 -43 12 -135 16 -474 20 l-422 5 -15
-68z m638 -284 c17 -8 38 -31 48 -51 14 -30 15 -44 7 -90 -11 -58 -31 -91 -74
-123 -24 -18 -45 -21 -152 -24 -68 -2 -124 -1 -124 3 0 17 53 291 57 299 9 13
204 2 238 -14z"/>
    <path d="M7605 1521 c-3 -5 -18 -40 -33 -78 -34 -80 -552 -1264 -559 -1276 -2
-4 102 -6 233 -5 l237 3 42 110 43 110 220 3 220 2 18 -115 18 -115 243 0
c136 0 243 4 243 9 0 5 -7 42 -15 82 -8 41 -16 88 -19 104 -5 32 -19 113 -60
341 -14 77 -28 161 -31 185 -3 24 -10 58 -15 74 -5 17 -11 48 -14 70 -2 22 -7
51 -11 65 -3 14 -22 118 -43 233 l-37 207 -337 0 c-194 0 -339 -4 -343 -9z
m326 -566 c16 -93 29 -182 29 -197 l0 -28 -125 0 c-96 0 -125 3 -125 13 0 11
45 131 85 222 89 208 89 208 98 183 5 -12 22 -99 38 -193z"/>
    <path d="M1889 1266 c-5 -5 -1007 -22 -1443 -25 -60 -1 -107 -3 -105 -5 2 -2
62 -7 134 -10 72 -4 195 -11 275 -16 247 -17 292 -20 400 -25 58 -3 132 -7
165 -10 33 -3 112 -7 175 -10 63 -3 149 -7 190 -10 132 -10 644 -34 648 -30 5
5 33 128 29 131 -5 5 -463 15 -468 10z"/>
    <path d="M1535 978 c-233 -5 -957 -17 -1142 -18 -118 0 -83 -17 39 -19 62 -1
121 -4 133 -6 17 -4 245 -17 945 -55 102 -5 226 -12 275 -15 130 -8 307 -16
402 -19 90 -3 86 -6 99 74 2 14 7 36 10 49 l5 23 -253 -3 c-139 -2 -370 -7
-513 -11z"/>
    <path d="M1677 714 c-2 -2 -400 -9 -1080 -20 -229 -4 -416 -8 -414 -10 1 -1
56 -5 122 -8 198 -9 745 -39 925 -51 67 -4 480 -25 842 -43 l137 -7 11 50 c6
27 13 59 16 71 l6 21 -282 -1 c-155 0 -282 -2 -283 -2z"/>
    <path d="M1745 450 c-498 -11 -1192 -22 -1422 -24 -106 -1 -196 -5 -199 -9 -4
-4 19 -7 52 -7 32 0 104 -3 159 -6 55 -3 107 -5 115 -6 8 0 83 -4 165 -9 83
-5 276 -16 430 -24 154 -8 300 -18 325 -20 25 -3 97 -8 160 -10 63 -2 176 -7
250 -9 74 -3 188 -8 252 -12 l117 -6 10 38 c23 93 24 104 4 104 -10 0 -27 2
-38 4 -11 2 -182 0 -380 -4z"/>
    <path d="M1459 176 c-2 -2 -267 -7 -589 -11 -322 -3 -619 -10 -660 -14 l-75
-8 75 -3 c41 -1 78 -2 82 -1 3 0 105 -6 225 -14 120 -7 283 -16 363 -20 80 -3
208 -10 285 -15 77 -5 232 -14 345 -20 113 -6 272 -15 353 -20 234 -15 225
-17 236 28 5 20 12 52 15 69 l6 33 -329 0 c-180 0 -330 -2 -332 -4z"/>
  </g>
</svg>
