<svg xmlns:inkscape="http://www.inkscape.org/namespaces/inkscape" xmlns:sodipodi="http://sodipodi.sourceforge.net/DTD/sodipodi-0.dtd" xmlns="http://www.w3.org/2000/svg" xmlns:svg="http://www.w3.org/2000/svg" width="570.06805mm" height="229.99409mm" viewBox="0 0 570.06808 229.99409" id="svg1685" inkscape:version="1.1 (c68e22c387, 2021-05-23)" sodipodi:docname="Droplet Scientific Logo - 2271B1 - Blue - FULL.svg"><defs id="defs1682"></defs><g inkscape:label="Layer 1" inkscape:groupmode="layer" id="layer1" transform="translate(-194.34897,-137.97999)"><svg id="Layer_1" x="194.349" y="137.98" viewBox="558.7439 455.28677 882.45728 1089.4132" xml:space="preserve" height="230" width="186.30209" preserveAspectRatio="xMinYMin" style="overflow:visible;fill:#2271b1;fill-opacity:1"><path class="st0" d="M 1013,1174" style="fill:#2271b1;fill-opacity:1;stroke:#f5bfcf;stroke-width:22.3093;stroke-linecap:round;stroke-linejoin:round;stroke-miterlimit:10;stroke-opacity:1" id="path2"></path><path class="st1" d="m 1277.5,1544.7 c -3.5,0 -6.9,-1.7 -9.1,-4.7 -0.8,-1.1 -80.7,-112.2 -125.7,-143.9 -56.1,-39.5 -134.4,-52.8 -199.5,-33.8 -68.8,20.1 -89.8,22.5 -145.8,29.1 -8.5,1 -17.8,2.1 -28.3,3.3 -46.6,5.7 -77.6,-1.4 -94.8,-21.8 -21.7,-25.7 -13.9,-64.7 -4.7,-95.8 4.5,-15.1 9.5,-33.6 8.5,-42.8 -0.4,-3.4 -1,-5.5 -8.6,-8.3 -13.2,-4.8 -22.7,-17 -24.3,-31.1 -1.5,-13.2 4.2,-25.4 15.2,-32.5 5,-3.2 7.7,-7.3 8.7,-10.1 -21.3,1.4 -38.2,-5.8 -45.6,-19.4 -6,-11 -4.4,-24.1 4.1,-35 3.9,-5 5,-11.4 3.3,-18 -2.6,-9.7 -10.8,-18 -22.5,-22.9 -5,-2.1 -9.8,-3.8 -14.5,-5.5 -15.2,-5.4 -28.3,-10.1 -33.3,-22.5 -3.3,-8 -2.2,-17.5 3.3,-29 11.4,-23.5 40.6,-58.3 61.9,-83.7 6.3,-7.5 11.7,-13.9 15.9,-19.2 17.9,-22.2 38.5,-75.6 37.3,-108.5 -0.2,-5.9 -1.7,-14.1 -3.5,-23.6 -8.1,-44.2 -21.7,-118.1 52.1,-186.4 59.4,-54.6 142.7,-96.2 228.8,-114 43.2,-9 84.6,-11.5 122.8,-7.4 41.1,4.3 76.6,16 105.7,34.8 26.3,17 46.5,39.1 60.5,66.1 0.2,0.1 0.4,0.1 0.6,0.2 58,22.5 98.2,64.1 123.4,93.4 30.7,35.7 51.8,78.8 62.8,128.1 8.9,40 11.2,84.1 6.9,131.3 -8.6,93.3 -39.8,164.4 -40.1,165.1 -65.8,148 -92.3,264.6 -102.9,336.3 -11.4,77.1 -7.5,119.6 -7.4,120 0.5,5 -2.4,9.8 -7.2,11.5 -1.4,0.5 -2.7,0.7 -4,0.7 z m -272.7,-213.1 c 53.3,0 108,16.2 150.8,46.4 33.6,23.6 82.5,84.8 110.1,121 0.5,-21.1 2.5,-51.2 8.2,-89.8 10.8,-73.1 37.8,-191.8 104.6,-342.1 0.3,-0.7 30.1,-68.5 38.3,-158.1 9.2,-100.6 -12.4,-182.4 -64.4,-242.9 -15.8,-18.4 -47,-54.7 -94.8,-78.4 2.2,6.9 4.1,14 5.6,21.3 6.9,32.8 7.1,70 0.7,111.3 3.9,3.1 7.7,6.4 11.4,9.8 45.2,42.1 56.2,93.4 51.4,127.3 -3.8,27 -20.6,49 -48.6,63.8 -23.3,12.3 -54.1,19.1 -88.7,19.7 -12.5,27.4 -26.6,56.3 -42.2,85.5 82.6,14 106.3,46.5 112.4,68.9 4.6,16.6 1.5,34.2 -8.8,50.9 -9.2,14.8 -23.9,28.1 -41.4,37.5 -3.1,1.7 -6.1,3.2 -8.9,4.8 -37.5,20.1 -56.3,30.1 -112.8,46.8 -17.2,5.1 -35.8,-1.4 -46.2,-16.2 -7.1,-9.9 -20,-37.9 12.2,-82.7 20.9,-29.1 40.4,-60.3 58.3,-91.9 -28.7,-2.6 -61.6,-3.1 -98.5,-1.5 -52.1,2.3 -102.2,-15.5 -141,-50.3 -35.8,-32.1 -59.7,-76.6 -65.6,-122.1 -5.5,-42.5 4.5,-82.1 28.8,-114.7 19.5,-26.1 48,-46.7 83.7,-60.8 5,-15.5 12.3,-30.5 21.6,-44.7 20.2,-30.7 49.3,-55.9 84.3,-73 66.6,-32.5 129.6,-42.3 187.8,-29.2 -10.8,-14.7 -24.3,-27.2 -40.2,-37.5 -104.3,-67.4 -309.2,-27.1 -429.8,84.5 -64.8,60 -53.1,123.8 -45.3,166 1.9,10.3 3.5,19.3 3.8,26.8 1.4,38.7 -21.1,97 -42.2,123.3 -4.4,5.5 -9.9,12 -16.3,19.6 -20.6,24.5 -48.7,58 -58.9,79 -3.7,7.7 -3,10.4 -2.8,10.9 1.3,3.2 11.8,7 20.2,10 4.7,1.7 10,3.6 15.5,5.9 18.2,7.5 31.2,21.3 35.5,37.8 3.5,13.3 0.9,26.9 -7.2,37.4 -2.2,2.8 -4.3,6.8 -2.2,10.7 2.4,4.4 10.7,9.1 26.2,7.7 12.3,-1.1 19.1,5.8 21.5,12.7 4.3,12.4 -3.6,29 -18.3,38.6 -5.2,3.4 -5.5,8.5 -5.2,11.3 0.5,4.3 3.4,10.2 9.9,12.6 31.2,11.6 26,37.4 13.8,78.4 -7.6,25.7 -14.5,57.5 0.3,75 11.8,13.9 37.1,18.7 75.1,14 10.5,-1.3 19.8,-2.4 28.4,-3.4 54.7,-6.4 75.1,-8.8 142.1,-28.3 21.6,-6.5 44.6,-9.6 67.8,-9.6 z M 1136,1047.4 c -19.5,35 -41,69.8 -64.1,102.1 -16.5,23 -21.1,44.3 -12.1,56.8 4.9,7 13.7,10.1 21.7,7.7 54.3,-16 72.5,-25.7 108.6,-45 2.9,-1.5 5.8,-3.1 8.9,-4.8 29,-15.5 45.1,-41.3 39.2,-62.8 -4.8,-17.7 -23.6,-32.5 -54.2,-42.9 -13.9,-4.7 -29.9,-8.4 -48,-11.1 z m -463.7,104.9 v 0 c 0,0 0,0 0,0 z m 382.1,-132.5 c 26.3,0 49.2,1.3 69.3,3.5 15.2,-28.1 29.1,-56.1 41.4,-82.8 -1.9,-0.1 -3.9,-0.3 -5.9,-0.4 -48.8,-3.8 -99.9,-18.4 -147.8,-42.1 -64.1,-31.7 -100.8,-86.7 -100.6,-150.9 0,-8.4 0.7,-16.7 2,-25 -61.5,29.4 -92.2,81.2 -83.9,145.6 10.2,78.8 81.7,157.6 183.5,153 14.9,-0.6 28.9,-0.9 42,-0.9 z M 937.7,712.1 c -2.9,11.5 -4.5,23.3 -4.5,35.1 -0.2,55.3 32,103 88.2,130.8 50.6,25 105.5,38.9 153.7,40.6 20.2,-45.4 35.4,-85.5 44.6,-113.1 8.8,-26.5 15.5,-51.6 19.9,-75.2 -43.1,-29.1 -125.5,-58.1 -271,-26.7 -10.8,2.3 -21.2,5.2 -30.9,8.5 z m 321.6,33.6 c -4.5,21.3 -10.6,43.6 -18.4,66.9 -8.7,26.2 -22.8,63.4 -41.3,105.8 26.2,-1.5 49.6,-7 68.1,-16.8 21.7,-11.4 34.1,-27.3 36.9,-47.2 4,-28.4 -5.6,-71.6 -44.5,-107.9 -0.2,-0.3 -0.5,-0.5 -0.8,-0.8 z m -173.2,-78.1 c 25.4,0 49.3,2.2 71.6,6.5 32.6,6.3 61.3,17 85.8,32 4.4,-34.2 3.7,-65.1 -2,-92.4 -2.8,-13.5 -6.9,-26 -12.1,-37.6 -50,-16.6 -114.4,-17.5 -194.3,21.4 -40.4,19.7 -71.4,51.7 -88.1,88.5 5.5,-1.5 11.2,-2.9 17,-4.2 43.6,-9.5 84.5,-14.2 122.1,-14.2 z" style="fill:#2271b1;fill-opacity:1" id="path4"></path></svg><g id="g1487" transform="matrix(2.1239704,0,0,2.1150638,-41.903719,-619.48679)"><g fill="#3ad0e6" fill-opacity="1" id="g9" style="fill:#2271b1;fill-opacity:1" transform="translate(252.339,419.97001)"><path d="m 4.45,15.53 v 0 q 2.73,0 2.73,-1.87 v 0 Q 7.18,13.09 6.94,12.68 6.7,12.28 6.28,11.98 5.87,11.68 5.34,11.47 4.81,11.25 4.21,11.03 v 0 Q 3.53,10.8 2.92,10.5 2.3,10.21 1.85,9.8 1.4,9.4 1.14,8.84 0.88,8.28 0.88,7.49 v 0 Q 0.88,5.85 2,4.93 3.11,4.01 5.08,4.01 v 0 q 1.13,0 2.06,0.25 0.92,0.24 1.36,0.53 v 0 L 7.94,6.21 Q 7.56,5.98 6.81,5.75 6.07,5.53 5.08,5.53 v 0 Q 4.57,5.53 4.14,5.63 3.71,5.74 3.38,5.96 3.06,6.17 2.87,6.51 2.68,6.84 2.68,7.29 v 0 q 0,0.5 0.2,0.85 0.2,0.34 0.56,0.6 Q 3.8,9 4.28,9.22 4.75,9.43 5.33,9.65 v 0 q 0.81,0.32 1.48,0.65 0.68,0.32 1.17,0.77 0.5,0.45 0.77,1.07 0.27,0.62 0.27,1.5 v 0 q 0,1.64 -1.2,2.52 -1.2,0.89 -3.37,0.89 v 0 q -0.74,0 -1.36,-0.1 Q 2.47,16.85 1.98,16.71 1.49,16.58 1.14,16.43 0.79,16.27 0.59,16.16 v 0 l 0.53,-1.44 q 0.41,0.24 1.26,0.53 0.84,0.28 2.07,0.28 z m 12.04,1.52 v 0 q -1.32,0 -2.4,-0.44 -1.08,-0.43 -1.85,-1.26 -0.77,-0.82 -1.2,-2.04 -0.42,-1.21 -0.42,-2.78 v 0 q 0,-1.57 0.48,-2.78 0.47,-1.22 1.28,-2.04 0.81,-0.83 1.89,-1.26 1.08,-0.44 2.31,-0.44 v 0 q 0.77,0 1.39,0.11 0.62,0.11 1.08,0.25 0.46,0.15 0.75,0.29 0.29,0.15 0.4,0.22 v 0 L 19.69,6.32 Q 19.53,6.21 19.22,6.08 18.92,5.96 18.53,5.83 18.14,5.71 17.69,5.63 17.23,5.54 16.76,5.54 v 0 q -0.99,0 -1.78,0.35 -0.8,0.34 -1.35,0.99 -0.56,0.64 -0.86,1.57 -0.3,0.93 -0.3,2.08 v 0 q 0,1.12 0.27,2.03 0.26,0.92 0.78,1.58 0.52,0.66 1.3,1.02 0.79,0.36 1.83,0.36 v 0 q 1.21,0 2,-0.26 0.79,-0.25 1.19,-0.45 v 0 l 0.45,1.44 q -0.13,0.09 -0.45,0.23 -0.33,0.13 -0.81,0.26 -0.49,0.13 -1.14,0.22 -0.65,0.09 -1.4,0.09 z m 5.79,-0.27 V 4.3 h 1.75 v 12.48 z m 12.91,0 H 27.13 V 4.3 h 7.61 v 1.5 h -5.87 v 3.7 h 5.22 v 1.46 h -5.22 v 4.32 h 6.32 z m 12.22,0 h -1.46 q -0.39,-0.67 -0.9,-1.5 -0.52,-0.83 -1.11,-1.72 -0.6,-0.89 -1.23,-1.81 Q 42.07,10.84 41.44,9.98 40.81,9.13 40.21,8.37 39.62,7.61 39.11,7.04 v 0 9.74 H 37.4 V 4.3 h 1.39 q 0.85,0.9 1.81,2.1 0.96,1.2 1.91,2.47 0.94,1.26 1.78,2.49 0.84,1.22 1.41,2.18 v 0 -9.24 h 1.71 z M 49.25,4.3 h 9.59 V 5.81 H 54.92 V 16.78 H 53.17 V 5.81 H 49.25 Z M 60.68,16.78 V 4.3 h 1.74 v 12.48 z m 6.59,0 H 65.52 V 4.3 h 7.52 v 1.5 h -5.77 v 3.76 h 5.13 v 1.47 h -5.13 z m 7.92,0 V 4.3 h 1.74 v 12.48 z m 10.2,0.27 v 0 q -1.31,0 -2.39,-0.44 -1.08,-0.43 -1.86,-1.26 -0.77,-0.82 -1.19,-2.04 -0.43,-1.21 -0.43,-2.78 v 0 q 0,-1.57 0.48,-2.78 0.48,-1.22 1.29,-2.04 0.81,-0.83 1.89,-1.26 1.08,-0.44 2.3,-0.44 v 0 q 0.78,0 1.4,0.11 0.62,0.11 1.08,0.25 0.46,0.15 0.74,0.29 0.29,0.15 0.4,0.22 v 0 L 88.6,6.32 Q 88.43,6.21 88.13,6.08 87.82,5.96 87.44,5.83 87.05,5.71 86.59,5.63 86.13,5.54 85.66,5.54 v 0 q -0.99,0 -1.78,0.35 -0.79,0.34 -1.35,0.99 -0.56,0.64 -0.85,1.57 -0.3,0.93 -0.3,2.08 v 0 q 0,1.12 0.26,2.03 0.26,0.92 0.78,1.58 0.52,0.66 1.31,1.02 0.78,0.36 1.82,0.36 v 0 q 1.21,0 2,-0.26 0.79,-0.25 1.19,-0.45 v 0 l 0.45,1.44 q -0.13,0.09 -0.45,0.23 -0.32,0.13 -0.81,0.26 -0.49,0.13 -1.13,0.22 -0.65,0.09 -1.41,0.09 z" id="path7" style="fill:#2271b1;fill-opacity:1"></path></g><path d="m 224.85899,412.05001 h -10.03 v -23.8 h 10.03 q 3.81,0 6.72,1.5 2.9,1.49 4.52,4.18 1.61,2.69 1.61,6.22 v 0 q 0,3.54 -1.61,6.22 -1.62,2.69 -4.52,4.19 -2.91,1.49 -6.72,1.49 z m -6.63,-20.84 v 17.88 h 6.43 q 2.95,0 5.11,-1.12 2.16,-1.12 3.35,-3.14 1.19,-2.03 1.19,-4.68 v 0 q 0,-2.68 -1.19,-4.69 -1.19,-2.01 -3.35,-3.13 -2.16,-1.12 -5.11,-1.12 v 0 z m 28.08,20.84 h -3.4 v -23.8 h 9.29 q 3.12,0 5.33,0.99 2.21,0.98 3.4,2.85 1.19,1.87 1.19,4.46 v 0 q 0,2.58 -1.19,4.43 -1.19,1.86 -3.4,2.84 -2.21,0.99 -5.33,0.99 v 0 h -7.42 l 1.53,-1.56 z m 16.22,0 h -3.7 l -6.06,-8.63 h 3.64 z m -16.22,-22.54 v 14.08 l -1.53,-1.67 h 7.31 q 3.27,0 4.95,-1.41 1.68,-1.41 1.68,-3.96 v 0 q 0,-2.55 -1.68,-3.95 -1.68,-1.39 -4.95,-1.39 v 0 h -7.31 z m 32.07,22.81 v 0 q -2.72,0 -5.05,-0.91 -2.33,-0.92 -4.03,-2.57 -1.7,-1.65 -2.65,-3.86 -0.96,-2.21 -0.96,-4.83 v 0 q 0,-2.62 0.96,-4.83 0.95,-2.21 2.65,-3.86 1.7,-1.64 4.01,-2.56 2.31,-0.92 5.07,-0.92 v 0 q 2.72,0 5.01,0.9 2.3,0.9 4.01,2.55 1.72,1.65 2.66,3.86 0.93,2.21 0.93,4.86 v 0 q 0,2.65 -0.93,4.86 -0.94,2.21 -2.66,3.86 -1.71,1.65 -4.01,2.55 -2.29,0.9 -5.01,0.9 z m 0,-3.02 v 0 q 1.97,0 3.65,-0.68 1.68,-0.68 2.93,-1.92 1.24,-1.24 1.93,-2.91 0.7,-1.67 0.7,-3.64 v 0 q 0,-1.97 -0.7,-3.64 -0.69,-1.66 -1.93,-2.9 -1.25,-1.24 -2.93,-1.92 -1.68,-0.68 -3.65,-0.68 v 0 q -2.01,0 -3.69,0.68 -1.69,0.68 -2.94,1.92 -1.26,1.24 -1.96,2.9 -0.7,1.67 -0.7,3.64 v 0 q 0,1.97 0.7,3.64 0.7,1.67 1.96,2.91 1.25,1.24 2.94,1.92 1.68,0.68 3.69,0.68 z m 21.21,2.75 h -3.4 v -23.8 h 9.28 q 3.13,0 5.34,0.99 2.21,0.98 3.4,2.85 1.19,1.87 1.19,4.46 v 0 q 0,2.58 -1.19,4.43 -1.19,1.86 -3.4,2.86 -2.21,1 -5.34,1 v 0 h -7.41 l 1.53,-1.59 z m 0,-22.54 v 14.08 l -1.53,-1.7 h 7.31 q 3.27,0 4.95,-1.4 1.68,-1.39 1.68,-3.94 v 0 q 0,-2.55 -1.68,-3.95 -1.68,-1.39 -4.95,-1.39 v 0 h -7.31 z m 37.1,22.54 h -16.29 v -23.8 h 3.4 v 20.84 h 12.89 z m 7,-10.64 v -2.89 h 12.24 v 2.89 z m 0.31,-10.2 v 17.88 h 13.87 v 2.96 h -17.27 v -23.8 h 16.79 v 2.96 z m 27.47,20.84 h -3.37 v -20.84 h -8.16 v -2.96 h 19.69 v 2.96 h -8.16 z" id="path13" style="fill:#2271b1;fill-opacity:1"></path></g></g></svg>