<svg class="img-fluid" id="outputsvg" xmlns="http://www.w3.org/2000/svg" style="transform: none; transform-origin: 50% 50%; cursor: move; max-height: 378.64px;" width="1102" height="360" viewBox="0 0 11020 3600"><g id="l3kHK6sPGNS6TgEZ12f8CU5" fill="rgb(0,0,0)" style="transform: none;"><g style="transform: none;"><path id="ppIDtZfqQ" d="M1350 3465 c-78 -13 -161 -35 -170 -45 -3 -3 -36 -16 -75 -29 -120 -40 -319 -149 -412 -226 -108 -87 -265 -268 -329 -377 -92 -157 -149 -325 -184 -543 -45 -281 -4 -576 118 -850 65 -146 127 -234 287 -402 119 -127 299 -245 478 -314 29 -11 61 -23 72 -28 109 -46 177 -60 344 -71 257 -16 487 11 626 74 27 13 61 27 75 31 89 27 337 181 423 263 61 59 170 190 226 273 163 245 234 490 233 814 0 381 -101 656 -352 959 -131 159 -338 303 -541 377 -46 17 -89 35 -95 40 -17 14 -99 36 -199 53 -110 19 -415 20 -525 1z m183 -1175 c-5 -4 -29 -15 -56 -24 -67 -25 -130 -91 -151 -160 -26 -83 -19 -205 15 -271 48 -92 148 -145 274 -145 101 0 160 23 225 88 66 67 80 106 80 218 0 65 -5 88 -26 131 -35 68 -87 117 -149 140 l-50 19 -3 517 -2 518 37 -7 c21 -3 78 -15 128 -25 49 -10 90 -19 92 -19 2 0 3 -198 3 -439 l0 -440 48 -58 c27 -32 71 -78 97 -102 l48 -45 -2 -112 c-2 -102 0 -116 23 -162 31 -61 93 -116 154 -136 59 -21 185 -21 245 0 69 23 132 84 157 152 18 48 21 73 18 152 -6 138 -47 207 -153 256 -67 32 -210 34 -278 5 l-44 -19 -77 77 -76 77 2 366 3 366 60 -25 c82 -34 175 -98 276 -187 164 -147 269 -291 344 -470 19 -44 41 -95 50 -112 48 -96 76 -351 56 -514 -17 -139 -38 -210 -99 -350 -103 -234 -206 -371 -417 -549 -144 -122 -510 -261 -687 -261 l-38 0 0 166 0 166 -214 214 c-160 159 -216 221 -221 245 -10 46 -81 118 -143 146 -126 56 -279 8 -333 -104 -32 -67 -33 -198 -1 -260 42 -80 122 -122 237 -122 76 -1 128 17 181 62 l30 26 152 -152 152 -152 0 -113 0 -114 -42 7 c-24 3 -88 17 -143 31 -341 82 -599 269 -801 579 -134 206 -204 467 -191 714 10 176 69 403 135 521 143 255 318 440 535 565 l47 27 0 -270 c0 -149 -4 -281 -9 -294 -6 -13 -25 -40 -43 -62 l-34 -38 -64 32 c-82 42 -198 52 -278 26 -71 -24 -133 -82 -166 -156 -25 -56 -28 -71 -24 -154 3 -88 5 -96 41 -149 23 -36 58 -71 94 -94 l56 -38 111 0 c94 0 117 4 151 22 97 52 155 145 155 250 l0 63 72 82 c40 46 78 87 85 91 10 6 13 87 13 376 l0 368 103 27 c56 15 131 30 167 34 l65 7 3 -509 c1 -281 -1 -513 -5 -516z m-720 117 c100 -76 81 -185 -40 -239 -42 -19 -44 -19 -86 0 -114 51 -123 178 -17 250 43 29 96 25 143 -11z m1704 -228 c41 -26 75 -92 66 -130 -16 -67 -107 -136 -164 -124 -68 15 -137 111 -118 164 19 53 34 73 74 97 47 29 86 27 142 -7z m-836 -72 c19 -12 45 -43 58 -70 l23 -47 -23 -47 c-30 -61 -92 -98 -145 -89 -41 8 -102 59 -120 101 -10 25 -10 36 2 65 41 97 132 136 205 87z m-663 -593 c12 -8 29 -28 37 -45 14 -26 14 -32 0 -58 -22 -43 -70 -75 -94 -62 -29 16 -71 70 -71 93 0 25 62 88 87 88 10 0 29 -7 41 -16z"/><path id="p18hVVIDBW" d="M5307 2973 c-4 -3 -7 -241 -7 -527 0 -578 0 -580 70 -733 26 -57 44 -82 93 -123 121 -102 216 -134 402 -135 197 0 300 38 415 154 120 120 160 225 160 422 0 189 -40 290 -164 414 -124 123 -245 164 -451 152 -138 -8 -225 -42 -312 -120 l-23 -20 0 261 0 262 -88 0 c-49 0 -92 -3 -95 -7z m695 -587 c76 -36 155 -123 203 -223 48 -99 51 -179 11 -257 -69 -132 -129 -195 -227 -237 -42 -19 -72 -24 -134 -24 -105 0 -171 32 -260 126 -108 115 -136 238 -85 383 20 54 37 82 85 131 70 72 94 89 166 116 74 27 164 21 241 -15z"/><path id="p7gxN8f5v" d="M4230 2600 c-170 -16 -315 -86 -446 -217 -72 -71 -94 -102 -130 -177 -61 -126 -77 -209 -71 -371 4 -111 9 -144 36 -226 50 -153 142 -283 258 -364 91 -64 148 -91 239 -114 152 -38 302 -36 474 6 169 42 346 181 437 343 89 158 113 405 61 615 -24 98 -62 171 -131 251 -102 121 -223 199 -361 233 -85 22 -250 31 -366 21z m240 -208 c91 -24 218 -101 284 -173 69 -74 134 -206 149 -302 23 -145 -33 -293 -161 -428 -119 -126 -281 -197 -427 -186 -181 13 -382 152 -468 324 -108 213 -75 448 84 597 165 156 356 216 539 168z"/><path id="p105iMOwfd" d="M7060 2591 c-172 -21 -307 -117 -387 -274 -73 -145 -91 -299 -52 -450 52 -205 184 -347 374 -403 88 -26 287 -23 375 5 160 50 302 194 353 356 28 91 31 299 5 385 -32 106 -124 231 -221 301 -89 64 -283 99 -447 80z m243 -209 c100 -44 180 -138 217 -253 42 -129 11 -251 -91 -363 -158 -172 -345 -172 -515 0 -82 84 -108 147 -107 259 0 67 5 91 30 145 91 196 293 288 466 212z"/><path id="p13vHrTOvX" d="M8121 2590 c-108 -23 -201 -120 -243 -255 -10 -31 -20 -1182 -11 -1223 5 -21 10 -22 99 -22 l94 0 0 238 c0 130 4 242 8 249 5 8 46 13 122 15 l115 3 0 85 0 85 -117 3 -117 3 -7 36 c-4 21 -4 123 -1 229 7 222 21 274 86 338 43 42 45 42 162 30 l66 -6 17 48 c9 26 16 62 16 81 0 31 -3 33 -52 47 -69 20 -182 27 -237 16z"/><path id="plUzH68nr" d="M8985 2591 c-177 -23 -279 -85 -374 -227 -66 -98 -87 -160 -96 -274 -13 -178 21 -309 113 -432 119 -158 231 -211 452 -211 142 -1 221 19 321 79 143 85 239 270 239 456 l0 78 -461 0 c-434 0 -460 1 -455 18 2 9 12 42 20 73 20 72 92 171 153 209 81 51 135 64 215 51 119 -20 230 -94 295 -197 25 -40 32 -44 67 -44 24 0 56 10 83 25 41 24 43 28 43 71 0 35 -8 57 -34 97 -77 116 -180 189 -301 215 -70 16 -209 22 -280 13z m429 -723 c-13 -44 -50 -96 -94 -133 -183 -154 -423 -115 -540 88 -16 29 -30 55 -30 60 0 4 151 7 336 7 l335 0 -7 -22z"/><path id="ptKrJzAHJ" d="M9837 2593 c-10 -9 -8 -1476 1 -1491 6 -9 33 -12 98 -10 l89 3 5 383 5 384 65 -59 c82 -74 284 -250 329 -286 33 -27 36 -28 150 -25 l116 3 3 33 c3 30 -3 40 -65 95 -37 34 -108 100 -158 147 -49 47 -110 102 -134 122 l-43 37 99 133 c54 73 132 180 173 238 41 58 96 133 122 166 51 65 63 116 32 128 -19 7 -192 8 -219 0 -11 -3 -33 -24 -50 -47 -16 -23 -93 -127 -170 -232 -78 -104 -150 -202 -160 -217 l-17 -28 -39 31 -39 31 0 228 c0 199 -2 229 -16 234 -21 8 -169 8 -177 -1z"/></g></g><g id="l73ojsHNDKJzMevbRG4kFSh" fill="rgb(255,255,255)" style="transform: none;"><g style="transform: none;"><path id="p1F2aD8ePY" d="M0 1800 l0 -1800 5510 0 5510 0 0 1800 0 1800 -5510 0 -5510 0 0 -1800z m1845 1634 c100 -17 182 -39 199 -53 6 -5 49 -23 95 -40 203 -74 410 -218 541 -377 243 -294 351 -579 352 -929 0 -359 -111 -656 -353 -940 -91 -108 -128 -142 -235 -217 -102 -72 -218 -135 -309 -169 -33 -12 -64 -25 -70 -29 -17 -13 -146 -48 -220 -60 -38 -6 -146 -11 -240 -11 -206 0 -320 19 -440 72 -11 4 -43 17 -72 28 -179 69 -359 187 -478 314 -160 169 -222 256 -287 402 -76 171 -111 309 -129 510 -10 113 -10 146 5 245 34 230 96 418 190 578 64 109 221 290 329 377 93 77 292 186 412 226 39 13 72 26 75 29 9 10 92 32 170 45 108 19 356 18 465 -1z m3615 -769 c0 -157 4 -285 8 -285 4 0 24 16 43 36 49 51 136 108 194 127 124 41 293 30 405 -26 75 -37 191 -146 235 -220 84 -144 86 -386 4 -533 -45 -81 -150 -184 -224 -221 -91 -45 -149 -58 -260 -57 -155 1 -259 38 -372 134 -49 41 -67 66 -93 123 -69 152 -70 158 -70 703 0 270 3 494 7 497 3 4 33 7 65 7 l58 0 0 -285z m-914 -111 c232 -48 451 -253 509 -474 51 -193 28 -417 -58 -570 -91 -163 -268 -301 -437 -343 -105 -26 -228 -37 -300 -28 -147 20 -235 53 -353 136 -169 118 -283 334 -294 560 -6 129 13 221 71 341 36 75 58 106 130 177 93 93 169 142 287 183 118 41 300 49 445 18z m2816 -20 c117 -38 207 -113 280 -236 55 -89 72 -154 72 -273 0 -166 -45 -276 -160 -392 -108 -109 -217 -154 -374 -155 -211 -2 -381 98 -477 277 -36 69 -73 203 -73 268 0 114 72 292 155 385 131 145 360 195 577 126z m966 10 c28 -8 52 -16 52 -17 0 -2 -7 -25 -16 -51 l-17 -48 -36 8 c-20 4 -62 8 -93 8 -53 1 -60 -2 -98 -39 -70 -68 -81 -115 -87 -370 -3 -122 -3 -237 1 -258 l7 -36 117 -3 117 -3 0 -55 0 -55 -115 -3 c-76 -2 -117 -7 -122 -15 -4 -7 -8 -119 -8 -249 l0 -238 -64 0 c-54 0 -64 3 -69 19 -7 27 2 1120 9 1156 4 17 18 53 32 80 84 168 204 220 390 169z m907 4 c78 -16 166 -62 218 -115 54 -54 117 -144 117 -167 0 -14 -75 -66 -96 -66 -5 0 -21 20 -37 44 -37 58 -113 129 -174 159 -99 50 -235 60 -324 23 -79 -32 -115 -60 -165 -128 -47 -64 -72 -130 -81 -215 l-6 -53 462 0 461 0 0 -48 c0 -62 -34 -185 -67 -242 -100 -172 -258 -262 -463 -262 -190 0 -309 59 -422 210 -91 122 -127 255 -110 409 18 159 135 338 264 404 119 61 275 78 423 47z m749 16 c14 -5 16 -35 16 -234 l0 -227 48 -40 c68 -57 67 -57 97 -10 16 23 92 128 169 232 78 105 155 209 171 232 34 48 46 53 132 53 98 0 100 -3 45 -74 -26 -33 -91 -122 -144 -196 -53 -74 -135 -187 -182 -250 -47 -63 -85 -121 -83 -127 1 -7 41 -48 89 -90 187 -167 326 -298 321 -305 -2 -5 -42 -8 -88 -8 -97 0 -67 -19 -304 190 -172 151 -245 210 -260 210 -7 0 -12 -129 -13 -397 l-3 -398 -59 -3 c-41 -2 -62 1 -67 10 -10 15 -12 1422 -2 1431 8 9 96 9 117 1z"/><path id="pPROCQjkp" d="M1440 3339 c-36 -4 -111 -20 -167 -35 l-103 -27 0 -368 c0 -289 -3 -370 -13 -376 -7 -4 -45 -45 -85 -91 l-72 -82 0 -63 c0 -105 -58 -199 -155 -250 -31 -16 -59 -21 -121 -21 -77 -1 -83 1 -137 37 -82 54 -130 129 -135 212 -11 165 136 310 295 291 59 -7 143 -45 184 -82 l25 -24 55 67 54 68 3 323 3 324 -23 -7 c-38 -12 -140 -71 -209 -121 -197 -145 -387 -392 -464 -604 -50 -139 -76 -274 -82 -431 -17 -433 144 -789 489 -1081 151 -127 388 -230 618 -268 36 -5 80 -13 98 -16 l32 -5 0 148 0 149 -170 169 -170 168 -38 -41 c-89 -96 -213 -107 -317 -28 -102 78 -103 263 -1 341 37 28 107 55 142 55 73 0 204 -101 219 -169 5 -24 61 -86 221 -245 l214 -214 0 -166 0 -166 68 0 c207 0 562 129 717 261 211 178 314 315 417 549 62 141 82 214 99 355 22 185 -6 469 -56 569 -9 17 -31 68 -50 112 -93 224 -279 446 -494 589 -54 35 -224 115 -245 115 -3 0 -6 -184 -6 -408 l0 -408 88 -86 88 -87 59 30 c108 52 240 33 319 -47 104 -106 100 -296 -10 -393 -178 -156 -454 -38 -454 195 0 37 5 84 12 106 l11 39 -57 51 c-32 28 -80 78 -107 110 l-49 59 0 439 0 438 -67 15 c-106 24 -184 37 -220 37 l-33 0 2 -547 3 -547 50 -19 c95 -35 175 -145 175 -241 0 -81 -19 -126 -80 -188 -83 -82 -169 -105 -278 -73 -243 72 -256 415 -19 503 l52 20 3 546 2 546 -32 -1 c-18 -1 -62 -5 -98 -10z"/><path id="pYdMksxc0" d="M639 2447 c-101 -68 -106 -228 -9 -294 63 -44 136 -42 208 4 52 34 72 75 72 146 0 100 -73 167 -183 167 -40 0 -63 -6 -88 -23z"/><path id="pt39h2xyk" d="M2344 2215 c-65 -39 -98 -128 -74 -199 35 -108 151 -157 250 -106 126 64 132 244 11 307 -61 32 -133 31 -187 -2z"/><path id="p5aOM70CY" d="M1555 2155 c-79 -28 -135 -121 -121 -199 8 -44 59 -104 103 -122 87 -37 191 -3 231 76 27 53 28 101 3 155 -22 48 -44 69 -94 90 -44 18 -70 18 -122 0z"/><path id="phSmBkFfS" d="M930 1552 c-40 -20 -80 -74 -80 -109 0 -34 24 -76 60 -107 102 -85 241 56 170 172 -19 30 -71 62 -102 62 -7 0 -29 -8 -48 -18z"/><path id="pxruHSqbe" d="M5731 2430 c-72 -26 -96 -43 -166 -115 -82 -84 -110 -160 -109 -295 0 -74 5 -108 23 -153 30 -75 129 -182 203 -220 175 -89 404 -28 509 134 73 114 81 138 82 239 1 91 -1 98 -37 173 -49 100 -129 187 -204 224 -78 37 -220 43 -301 13z"/><path id="p2iF7SV8q" d="M4240 2433 c-177 -29 -372 -168 -438 -310 -51 -111 -64 -247 -36 -380 40 -195 181 -358 379 -438 55 -22 91 -29 170 -32 121 -6 195 10 305 68 136 70 268 233 305 376 17 65 19 177 5 250 -15 82 -84 216 -146 282 -66 72 -193 149 -284 173 -60 16 -197 22 -260 11z"/><path id="pM7iDvxZE" d="M7110 2438 c-129 -21 -245 -111 -302 -235 -29 -62 -31 -77 -32 -178 -1 -93 3 -119 22 -168 32 -78 126 -173 216 -217 62 -31 76 -34 161 -34 85 0 99 3 159 33 83 41 176 139 208 220 33 84 36 212 8 300 -64 199 -242 312 -440 279z"/><path id="pX0E2Qk7Y" d="M8706 1912 c-7 -12 38 -116 70 -160 83 -111 214 -163 361 -142 109 15 230 86 277 164 24 39 56 132 49 140 -9 9 -751 7 -757 -2z"/></g></g></svg>